<?xml version="1.0" encoding="iso-8859-1"?>
<!-- Generator: Adobe Illustrator 19.0.0, SVG Export Plug-In . SVG Version: 6.00 Build 0)  -->
<svg version="1.1" id="Capa_1" xmlns="http://www.w3.org/2000/svg" xmlns:xlink="http://www.w3.org/1999/xlink" x="0px" y="0px"
	 viewBox="0 0 479.2 479.2" style="enable-background:new 0 0 479.2 479.2;" xml:space="preserve">
<g>
	<g>
		<path d="M240.396,329.6c-9.6-50.4-67.2-103.2-69.6-105.6c-4-3.2-9.6-3.2-12.8,0.8c-3.2,4-3.2,9.6,0.8,12.8
			c0.8,0.8,55.2,51.2,64,95.2c0.8,4,4.8,7.2,8.8,7.2h1.6C237.996,339.2,241.196,334.4,240.396,329.6z"/>
	</g>
</g>
<g>
	<g>
		<path d="M330.796,216.8c-2.4-3.2-7.2-4-10.4-2.4c-4,2.4-38.4,26.4-47.2,49.6c-2.4,4,0,9.6,4.8,11.2c0.8,0.8,2.4,0.8,3.2,0.8
			c4,0,7.2-2.4,8.8-5.6c5.6-14.4,31.2-34.4,40-40.8C333.996,226.4,333.996,220.8,330.796,216.8z"/>
	</g>
</g>
<g>
	<g>
		<path d="M437.996,137.6c-2.4-2.4-5.6-3.2-8-2.4c-24,5.6-62.4,17.6-91.2,33.6c-3.2-36.8-19.2-138.4-96.8-168.8c-0.8,0-0.8,0-1.6,0
			c-0.8,0-1.6,0-1.6,0c-0.8,0-1.6,0-1.6,0c-0.8,0-0.8,0-1.6,0c-77.6,30.4-93.6,131.2-96.8,168.8c-28-15.2-58.4-27.2-89.6-34.4
			c-4.8-0.8-9.6,2.4-10.4,7.2c-0.8,3.2,0,6.4,2.4,8c61.6,60.8,85.6,128.8,110.4,200.8c4,11.2,8,21.6,12,32.8
			c10.4,28,27.2,42.4,44,48v29.6c-0.8,9.6,6.4,17.6,16,18.4c0,0,0,0,0.8,0h34.4c9.6-0.8,16.8-8.8,16-18.4v-32
			c9.6-3.2,18.4-7.2,26.4-12c0.8-0.8,1.6-1.6,2.4-2.4c4-6.4,7.2-13.6,8.8-20.8c0.8-3.2,1.6-6.4,3.2-9.6c4-11.2,8-22.4,12-32.8
			c24-72,48-140,110.4-200.8C441.196,147.2,441.996,140.8,437.996,137.6z M313.196,127.2h-36.8v-36h25.6
			C306.796,103.2,310.796,115.2,313.196,127.2z M276.396,48c6.4,8,12,16,16.8,25.6h-16.8V48z M276.396,144.8h40
			c2.4,11.2,3.2,22.4,4,33.6l-3.2,1.6h-40.8V144.8z M276.396,199.2h15.2c-5.6,4-10.4,8-15.2,12.8V199.2z M237.996,17.6
			c7.2,3.2,13.6,7.2,20,12V72h-37.6l0-44C225.996,24,231.596,20.8,237.996,17.6z M220.396,91.2h37.6v36h-37.6V91.2z M220.396,144.8
			h37.6v36h-37.6V144.8z M220.396,199.2h37.6v30.4c-6.4,7.2-12.8,14.4-19.2,22.4c-5.6-8-12-15.2-18.4-21.6V199.2z M202.796,44.8v28
			h-19.2C189.196,63.2,194.796,53.6,202.796,44.8z M174.796,91.2h27.2v36h-39.2C166.796,115.2,170.796,102.4,174.796,91.2z
			 M202.796,199.2v13.6c-5.6-4.8-11.2-9.6-16-13.6H202.796z M159.596,144.8h42.4v36h-42.4l-4-2.4
			C156.396,167.2,157.996,156,159.596,144.8z M256.396,460.8h-31.2v-25.6c3.2,0,5.6,0,8.8,0c7.2,0,15.2-0.8,22.4-2.4V460.8z
			 M233.996,418.4c-26.4,0-43.2-13.6-53.6-40.8c-4-11.2-8-21.6-12-32.8c-22.4-64.8-44-126.4-92.8-184c59.2,20,184,80.8,196.8,228
			c0,1.6,0.8,3.2,1.6,4.8l8.8,12.8C267.596,412.8,250.796,417.6,233.996,418.4z M309.996,344c-4,10.4-8,21.6-12,32.8
			c-1.6,3.2-2.4,7.2-3.2,10.4l-0.8,2.4l-4-5.6c-3.2-41.6-17.6-81.6-40-116.8c44.8-62.4,112.8-93.6,152.8-107.2
			C354.796,217.6,333.196,279.2,309.996,344z"/>
	</g>
</g>
<g>
</g>
<g>
</g>
<g>
</g>
<g>
</g>
<g>
</g>
<g>
</g>
<g>
</g>
<g>
</g>
<g>
</g>
<g>
</g>
<g>
</g>
<g>
</g>
<g>
</g>
<g>
</g>
<g>
</g>
</svg>
