<svg id="Layer_1" enable-background="new 0 0 512 512" height="512" viewBox="0 0 512 512" width="512" xmlns="http://www.w3.org/2000/svg"><g><path d="m206.733 142.467h1.066c8.284 0 15-6.716 15-15v-56.234c.001-39.278-31.954-71.233-71.232-71.233h-64.267c-39.278 0-71.233 31.955-71.233 71.233v56.233c0 8.284 6.716 15 15 15h1.066v27.212c-20.769 22.955-32.133 52.385-32.133 83.558v243.764c0 8.284 6.716 15 15 15h208.867c8.284 0 15-6.716 15-15v-243.764c0-31.184-11.363-60.615-32.133-83.566v-27.203zm-160.666-71.234c0-17.486 10.945-32.453 26.34-38.439.858 7.469 7.194 13.272 14.893 13.272 8.284 0 15-6.716 15-15v-1.066h34.267v1.066c0 8.284 6.716 15 15 15 7.699 0 14.035-5.803 14.893-13.272 15.395 5.986 26.34 20.953 26.34 38.439v41.233h-146.733zm162.8 410.767h-178.867v-203.526c50.51-46.141 128.348-46.143 178.867-.007zm-.916-242.03c-53.63-34.789-123.406-34.788-177.036.006 2.823-20.265 12.101-38.979 26.824-53.702 2.813-2.813 4.394-6.628 4.394-10.606v-33.2h114.6v33.2c0 4.236 1.758 8.063 4.585 10.791 14.612 14.688 23.822 33.329 26.633 53.511z"/><path d="m79.267 297.233c-8.284 0-15 6.716-15 15v120.5c0 8.284 6.716 15 15 15s15-6.716 15-15v-120.5c0-8.284-6.716-15-15-15z"/><path d="m159.6 447.733c8.284 0 15-6.716 15-15v-120.5c0-8.284-6.716-15-15-15s-15 6.716-15 15v120.5c0 8.285 6.716 15 15 15z"/><path d="m479.867 169.67v-27.203h1.066c8.284 0 15-6.716 15-15v-56.234c0-39.278-31.955-71.233-71.233-71.233h-64.267c-39.278 0-71.233 31.955-71.233 71.233v56.233c0 8.284 6.716 15 15 15h1.066v27.212c-20.769 22.954-32.133 52.384-32.133 83.558v243.764c0 8.284 6.716 15 15 15h208.867c8.284 0 15-6.716 15-15v-243.764c0-31.183-11.363-60.615-32.133-83.566zm-160.667-98.437c0-17.486 10.945-32.453 26.34-38.439.858 7.469 7.194 13.272 14.893 13.272 8.284 0 15-6.716 15-15v-1.066h34.267v1.066c0 8.284 6.716 15 15 15 7.699 0 14.035-5.803 14.893-13.272 15.395 5.986 26.34 20.953 26.34 38.439v41.233h-146.733zm11.673 115.04c2.813-2.813 4.394-6.628 4.394-10.606v-33.2h114.6v33.2c0 4.236 1.758 8.063 4.585 10.791 14.611 14.689 23.822 33.33 26.633 53.512-53.63-34.789-123.406-34.788-177.036.006 2.823-20.265 12.101-38.979 26.824-53.703zm151.127 295.727h-178.867v-203.526c50.51-46.141 128.348-46.143 178.867-.007z"/><path d="m352.4 297.233c-8.284 0-15 6.716-15 15v120.5c0 8.284 6.716 15 15 15s15-6.716 15-15v-120.5c0-8.284-6.716-15-15-15z"/><path d="m432.733 447.733c8.284 0 15-6.716 15-15v-120.5c0-8.284-6.716-15-15-15s-15 6.716-15 15v120.5c0 8.285 6.716 15 15 15z"/></g></svg>