<svg id="Layer_1" enable-background="new 0 0 512.001 512.001" height="512" viewBox="0 0 512.001 512.001" width="512" xmlns="http://www.w3.org/2000/svg"><g><g><path d="m211.614 213.791c10.966-4.468 18.72-15.238 18.72-27.792 0-12.199-7.323-22.713-17.8-27.396 10.983-10.88 17.8-25.959 17.8-42.604 0-33.083-26.916-59.999-60-59.999h-100c-33.084 0-60 26.916-60 60 0 16.644 6.817 31.723 17.8 42.603-10.477 4.684-17.8 15.198-17.8 27.397 0 12.553 7.753 23.323 18.72 27.791l-28.611 190.726c-1.776 11.841 1.823 23.679 10.135 33.331 9.789 11.366 24.65 18.152 39.754 18.152h140.002c15.104 0 29.965-6.786 39.754-18.153 8.313-9.653 11.912-21.49 10.136-33.331zm-121.281 2.209v100h-56.388l15-100zm20 100v-100h20.001v100zm40.001 0v-100h41.387l15 100zm-75.004-140c5.523 0 10-4.477 10-10s-4.477-10-10-10h-4.997c-22.056 0-40-17.944-40-40.001 0-22.054 17.941-39.996 39.995-39.999 0 5.523 4.481 10 10.004 10s10-4.477 10-10h60.002c0 5.523 4.481 10 10.004 10s10-4.477 10-10c22.054.003 39.995 17.945 39.995 40 0 22.056-17.944 40-40 40h-5.003c-5.523 0-10 4.477-10 10s4.477 10 10 10h35.003c5.514 0 10 4.486 10 10s-4.486 10-10 10h-160c-5.514 0-10-4.486-10-10s4.486-10 10-10zm139.603 248.796c-5.951 6.911-15.377 11.204-24.599 11.204h-140.002c-9.222 0-18.647-4.293-24.599-11.204-3.15-3.658-6.664-9.631-5.511-17.313l10.723-71.483h178.778l10.723 71.483c1.151 7.682-2.363 13.655-5.513 17.313z"/><path d="m511.558 404.517-28.61-190.726c10.966-4.468 18.72-15.238 18.72-27.792 0-12.199-7.323-22.713-17.8-27.396 10.983-10.88 17.8-25.959 17.8-42.604 0-33.083-26.916-59.999-60-59.999h-100c-33.084 0-60 26.916-60 60 0 16.644 6.817 31.723 17.8 42.603-10.477 4.684-17.8 15.198-17.8 27.397 0 12.553 7.753 23.323 18.72 27.791l-28.61 190.725c-1.776 11.841 1.823 23.679 10.135 33.331 9.789 11.366 24.65 18.152 39.754 18.152h140.002c15.104 0 29.965-6.786 39.754-18.153 8.311-9.651 11.911-21.488 10.135-33.329zm-149.892-188.517v100h-56.388l15-100zm20 100v-100h20.001v100zm40.001 0v-100h41.388l15 100zm-80.006-239.999c0 5.523 4.481 10 10.004 10s10-4.477 10-10h60.003c0 5.523 4.481 10 10.004 10s10-4.477 10-10c22.054.003 39.995 17.945 39.995 40 0 22.056-17.944 40-40 40h-100c-22.056 0-40-17.944-40-40.001 0-22.055 17.941-39.997 39.994-39.999zm130.006 99.999c5.514 0 10 4.486 10 10s-4.486 10-10 10h-160c-5.514 0-10-4.486-10-10s4.486-10 10-10zm14.6 248.796c-5.952 6.911-15.377 11.204-24.599 11.204h-140.002c-9.222 0-18.647-4.293-24.599-11.204-3.15-3.658-6.664-9.631-5.511-17.313l10.722-71.483h178.778l10.723 71.483c1.152 7.682-2.362 13.655-5.512 17.313z"/><path d="m120.341 106.001c5.523 0 10-4.477 10-10s-4.477-10-10-10h-.007c-5.523 0-9.997 4.477-9.997 10s4.481 10 10.004 10z"/><path d="m391.674 106.001c5.523 0 10-4.477 10-10s-4.477-10-10-10h-.008c-5.523 0-9.996 4.477-9.996 10s4.481 10 10.004 10z"/><path d="m120.333 176c5.523 0 10-4.477 10-10s-4.477-10-10-10h-.007c-5.523 0-9.996 4.477-9.996 10s4.48 10 10.003 10z"/></g></g></svg>